<?xml version="1.0" encoding="utf-8"?>
<!-- Generator: Adobe Illustrator 19.2.1, SVG Export Plug-In . SVG Version: 6.00 Build 0)  -->
<svg version="1.1" id="layer" xmlns="http://www.w3.org/2000/svg" xmlns:xlink="http://www.w3.org/1999/xlink" x="0px" y="0px"
	 viewBox="0 0 652 652" style="enable-background:new 0 0 652 652;" xml:space="preserve">
<style type="text/css">
	.st0{fill:#D71920;}
</style>
<g>
	<path d="M220.7,347.2h3.1l1.3-4.3c0.9-3.1,6.2-5,11.8-5c2,0,3.9,0,5.8,0.2l-1.3,4.3c-0.3-0.1-0.7-0.1-1-0.1h-0.5
		c-2.3,0-3.9,0.5-4.3,1.6l-1,3.2h5.2l-1.4,4.7h-5.2l-5,16.6h-10.8l5-16.6h-3.1L220.7,347.2z M239.5,353.6c1.7-5.7,7-6.8,16.3-6.8
		c9.3,0,13.9,1,12.2,6.8l-2.5,8.4c-1.7,5.7-7,6.8-16.3,6.8c-9.3,0-13.9-1-12.2-6.8L239.5,353.6z M248.1,362.6
		c-0.4,1.3,0.4,1.5,2.5,1.5s3.1-0.3,3.5-1.5l2.8-9.5c0.4-1.3-0.4-1.5-2.5-1.5s-3.1,0.3-3.5,1.5L248.1,362.6z M274.6,347.2H285
		l-0.6,2.1h0.2c2.1-2,4-2.5,8.1-2.5c3.9,0,6.1,0.5,5.4,3.1l-1.7,5.8h-9.1l0.9-3.1c0.2-0.7-0.8-0.8-1.9-0.8c-1.2,0-2.3,0.3-2.5,1.1
		l-4.7,15.6h-10.8L274.6,347.2z"/>
	<path class="st0" d="M48.9,274h71.4l-5.1,17H81.7l-7,23.3h30.6l-5.1,17H69.6l-11.2,37.2H20.6L48.9,274z M128.5,274h37.9l-28.3,94.4
		h-37.9L128.5,274z M194.4,291h-26.5l5.1-17h90.8l-5.1,17h-26.5L209,368.4h-37.9L194.4,291z M326,274h37.9l-23.2,77.5h36.7l-5.1,17
		h-74.6L326,274z M408.6,274h37.9l-28.3,94.4h-37.9L408.6,274z M463.6,274H535l-5.1,17h-33.5l-7,23.3H520l-5.1,17h-30.6l-11.2,37.2
		h-37.9L463.6,274z M547.8,274h72.8l-5.1,17h-34.9l-6.3,20.7h32.4l-4.9,16.2h-32.4l-7.1,23.6h37.6l-5.1,16.9h-75.5L547.8,274z"/>
</g>
</svg>
