<svg version="1.1" xmlns="http://www.w3.org/2000/svg" xmlns:xlink="http://www.w3.org/1999/xlink" x="0px" y="0px"
     viewBox="0 0 48 48" style="enable-background:new 0 0 48 48;" xml:space="preserve">
    <style type="text/css">
        .st0{fill-rule:evenodd;clip-rule:evenodd;}
    </style>
    <desc>Created with Sketch.</desc>
    <g id="Upcoming_classes_icon">
        <g id="Group" transform="translate(8.000000, 4.000000)">
            <path id="calendar" d="M24.5,5.5h-1v2h1V5.5z M19.5,5.5h-1v2h1V5.5z M29.5,5.5h-1v2h1V5.5z M22.5,5.5h-1v2h1V5.5z M25.5,1.5h-4v2h4
                V1.5z M15.5,7.5h-2v2h2V7.5z M29.5,7.5h-2v2h2V7.5z M26.5,7.5h-2v2h2V7.5z M23.5,7.5h-2v2h2V7.5z M20.5,7.5h-2v2h2V7.5z M17.5,7.5
                h-2v2h2V7.5z M14.5,7.5h-2v2h2V7.5z M31.5,8.5v19.9c0,1.4-1.1,2.6-2.6,2.6h-18c-1.4,0-2.6-1.1-2.6-2.6V8.5H7v19.9
                c0,1.1,0.9,2,2,2h18c1.1,0,2-0.9,2-2V8.5H31.5z M25.5,29.4h-18v-17h18V29.4z M11.5,33.5h2v-2h-2V33.5z M14.5,33.5h2v-2h-2V33.5z
                M17.5,33.5h2v-2h-2V33.5z M20.5,33.5h2v-2h-2V33.5z M23.5,33.5h2v-2h-2V33.5z M26.5,33.5h2v-2h-2V33.5z M29.5,33.5h2v-2h-2V33.5z
                M29.5,29.5h-18v-3h18V29.5z"/>
        </g>
    </g>
</svg>
